<?xml version="1.0" encoding="UTF-8"?>
<svg width="36px" height="36px" viewBox="-1 0 36 36" version="1.1" xmlns="http://www.w3.org/2000/svg" xmlns:xlink="http://www.w3.org/1999/xlink">
    
    <title>slot</title>
    <desc>Created with Sketch.</desc>
    <g id="icons" stroke="none" stroke-width="1" fill="none" fill-rule="evenodd">
        <g id="ui-gambling-website-lined-icnos-casinoshunter" transform="translate(-1773.000000, -412.000000)" fill="#1C1C1F" fill-rule="nonzero">
            <g id="1" transform="translate(1350.000000, 120.000000)">
                <path d="M437.638889,292 C439.725298,292 441.416667,293.653102 441.416667,295.692308 L441.416667,295.692308 L441.416,296.615 L446.611111,296.615385 C448.69752,296.615385 450.388889,298.268487 450.388889,300.307692 L450.388,309.538 L453.222,309.538 L453.221882,303.842308 C452.1216,303.462057 451.333333,302.436385 451.333333,301.230769 C451.333333,299.701365 452.60186,298.461538 454.166667,298.461538 C455.731473,298.461538 457,299.701365 457,301.230769 C457,302.436282 456.211868,303.461882 455.111734,303.84221 L455.111111,310.440171 L455.111057,310.451436 C455.111093,310.454799 455.111111,310.458167 455.111111,310.461538 C455.111111,310.97134 454.697835,311.384615 454.188034,311.384615 L450.388,311.384 L450.388889,324.307692 C450.388889,326.346898 448.69752,328 446.611111,328 L426.777778,328 C424.691369,328 423,326.346898 423,324.307692 L423,300.307692 C423,298.268487 424.691369,296.615385 426.777778,296.615385 L431.972,296.615 L431.972222,295.692308 C431.972222,293.718883 433.55623,292.107054 435.549366,292.005118 L435.75,292 Z M444.74359,316.923077 L439.034188,316.923077 C438.524387,316.923077 438.111111,317.336353 438.111111,317.846154 C438.111111,318.355955 438.524387,318.769231 439.034188,318.769231 L439.034188,318.769231 L444.74359,318.769231 C445.253391,318.769231 445.666667,318.355955 445.666667,317.846154 C445.666667,317.336353 445.253391,316.923077 444.74359,316.923077 L444.74359,316.923077 Z M443.305556,301.230769 L430.083333,301.230769 C428.518527,301.230769 427.25,302.470596 427.25,304 L427.25,304 L427.25,310.461538 C427.25,311.990942 428.518527,313.230769 430.083333,313.230769 L430.083333,313.230769 L443.305556,313.230769 C444.870362,313.230769 446.138889,311.990942 446.138889,310.461538 L446.138889,310.461538 L446.138889,304 C446.138889,302.470596 444.870362,301.230769 443.305556,301.230769 L443.305556,301.230769 Z M432.917,303.076 L432.916667,303.098291 L432.916667,311.363248 C432.916667,311.370361 432.916745,311.377455 432.916902,311.38453 L430.083333,311.384615 C429.561731,311.384615 429.138889,310.97134 429.138889,310.461538 L429.138889,310.461538 L429.138889,304 C429.138889,303.490199 429.561731,303.076923 430.083333,303.076923 L430.083333,303.076923 L432.917,303.076 Z M438.584,303.076 L438.583333,303.098291 L438.583333,311.363248 C438.583333,311.370361 438.583412,311.377455 438.583568,311.38453 L434.804,311.384 L434.805556,311.363248 L434.805556,303.098291 C434.805556,303.090839 434.805469,303.083408 434.805298,303.075998 L438.584,303.076 Z M443.305556,303.076923 C443.827158,303.076923 444.25,303.490199 444.25,304 L444.25,304 L444.25,310.461538 C444.25,310.97134 443.827158,311.384615 443.305556,311.384615 L443.305556,311.384615 L440.471,311.384 L440.472222,311.363248 L440.472222,303.098291 C440.472222,303.090839 440.472136,303.083408 440.471964,303.075998 Z" id="slot"></path>
            </g>
        </g>
    </g>
</svg>