<?xml version="1.0" encoding="iso-8859-1"?>
<!-- Generator: Adobe Illustrator 19.0.0, SVG Export Plug-In . SVG Version: 6.00 Build 0)  -->
<svg version="1.1" id="Layer_1" xmlns="http://www.w3.org/2000/svg" xmlns:xlink="http://www.w3.org/1999/xlink" x="0px" y="0px"
	 viewBox="0 0 450 450" style="enable-background:new 0 0 450 450;" xml:space="preserve">
<g>
	<path d="M225,262.085c-25.019,0-46.176,16.854-52.716,39.803h105.433C271.176,278.938,250.019,262.085,225,262.085z"/>
	<path d="M225,173.915c10.974,0,19.901-8.928,19.901-19.901s-8.928-19.901-19.901-19.901s-19.901,8.928-19.901,19.901
		S214.026,173.915,225,173.915z"/>
	<path d="M225,0C167.065,60.129,84.688,92.033,0,78.033C12.111,386.385,225,450,225,450s212.889-63.615,225-371.967
		C365.312,92.033,282.935,60.129,225,0z M225,104.113c27.516,0,49.901,22.386,49.901,49.901S252.516,203.915,225,203.915
		s-49.901-22.386-49.901-49.901S197.484,104.113,225,104.113z M309.803,331.887H140.197v-15c0-46.76,38.042-84.803,84.803-84.803
		s84.803,38.042,84.803,84.803V331.887z"/>
</g>
<g>
</g>
<g>
</g>
<g>
</g>
<g>
</g>
<g>
</g>
<g>
</g>
<g>
</g>
<g>
</g>
<g>
</g>
<g>
</g>
<g>
</g>
<g>
</g>
<g>
</g>
<g>
</g>
<g>
</g>
</svg>
